<?xml version="1.0" standalone="no"?>
<!DOCTYPE svg PUBLIC "-//W3C//DTD SVG 20010904//EN"
 "http://www.w3.org/TR/2001/REC-SVG-20010904/DTD/svg10.dtd">
<svg version="1.0" xmlns="http://www.w3.org/2000/svg"
 width="1080.000000pt" height="1080.000000pt" viewBox="0 0 1080.000000 1080.000000"
 preserveAspectRatio="xMidYMid meet">
<metadata>
Created by potrace 1.14, written by Peter Selinger 2001-2017
</metadata>
<g transform="translate(0.000000,1080.000000) scale(0.100000,-0.100000)"
fill="#000000" stroke="none">
<path d="M5428 10563 c29 -2 74 -2 100 0 26 2 2 3 -53 3 -55 0 -76 -1 -47 -3z"/>
<path d="M5703 10553 c15 -2 39 -2 55 0 15 2 2 4 -28 4 -30 0 -43 -2 -27 -4z"/>
<path d="M5808 10543 c12 -2 30 -2 40 0 9 3 -1 5 -23 4 -22 0 -30 -2 -17 -4z"/>
<path d="M5918 10533 c12 -2 32 -2 45 0 12 2 2 4 -23 4 -25 0 -35 -2 -22 -4z"/>
<path d="M6003 10523 c9 -2 23 -2 30 0 6 3 -1 5 -18 5 -16 0 -22 -2 -12 -5z"/>
<path d="M6098 10513 c7 -3 16 -2 19 1 4 3 -2 6 -13 5 -11 0 -14 -3 -6 -6z"/>
<path d="M6143 10503 c9 -2 25 -2 35 0 9 3 1 5 -18 5 -19 0 -27 -2 -17 -5z"/>
<path d="M6263 10483 c9 -2 23 -2 30 0 6 3 -1 5 -18 5 -16 0 -22 -2 -12 -5z"/>
<path d="M6445 10445 c28 -7 51 -12 53 -10 6 5 -61 25 -82 24 -12 0 2 -6 29
-14z"/>
<path d="M6538 10423 c6 -2 18 -2 25 0 6 3 1 5 -13 5 -14 0 -19 -2 -12 -5z"/>
<path d="M6595 10410 c11 -5 27 -9 35 -9 9 0 8 4 -5 9 -11 5 -27 9 -35 9 -9 0
-8 -4 5 -9z"/>
<path d="M3990 10376 c-209 -66 -369 -133 -585 -245 -160 -82 -395 -229 -395
-246 0 -5 7 -23 16 -40 9 -16 70 -133 136 -260 66 -126 151 -288 188 -360 37
-71 157 -301 265 -510 108 -209 200 -384 204 -388 5 -5 42 7 82 26 83 40 160
67 189 67 10 0 22 5 25 10 3 6 -4 10 -17 10 -18 0 -20 2 -8 10 13 9 13 10 0
10 -23 0 -105 129 -130 206 -16 46 -21 81 -18 113 l5 46 -14 -35 c-17 -40 -22
-128 -10 -180 18 -78 -16 5 -44 109 -78 287 -104 506 -75 641 25 122 86 231
186 331 47 47 121 110 165 139 44 29 84 56 88 60 5 4 -3 54 -17 111 -13 57
-39 167 -56 244 -41 177 -36 165 -57 164 -10 0 -65 -15 -123 -33z m-30 -1875
c-1 -13 -29 45 -29 59 0 8 6 0 14 -19 8 -18 15 -36 15 -40z m18 -36 c-3 -3 -9
2 -12 12 -6 14 -5 15 5 6 7 -7 10 -15 7 -18z m26 -31 c3 -8 2 -12 -4 -9 -6 3
-10 10 -10 16 0 14 7 11 14 -7z"/>
<path d="M6650 10389 c0 -5 5 -7 10 -4 6 3 10 8 10 11 0 2 -4 4 -10 4 -5 0
-10 -5 -10 -11z"/>
<path d="M6725 10370 c27 -12 43 -12 25 0 -8 5 -22 9 -30 9 -10 0 -8 -3 5 -9z"/>
<path d="M7260 10160 c8 -5 20 -10 25 -10 6 0 3 5 -5 10 -8 5 -19 10 -25 10
-5 0 -3 -5 5 -10z"/>
<path d="M6564 10050 c-15 -6 -26 -27 -39 -75 -18 -69 -18 -69 -70 -50 -11 4
-2 -4 20 -17 127 -76 200 -131 280 -212 105 -105 165 -211 190 -334 31 -150 7
-350 -76 -650 -39 -140 -46 -148 -41 -45 4 78 1 95 -21 148 -15 33 -26 53 -26
45 0 -8 6 -26 14 -40 37 -65 -7 -211 -99 -327 -22 -29 -48 -53 -56 -53 -8 -1
28 -16 81 -34 53 -18 119 -46 148 -61 31 -17 55 -25 60 -19 5 5 62 113 126
239 65 127 159 309 210 405 125 236 305 594 300 598 -8 9 -25 -10 -25 -28 0
-10 -4 -21 -8 -24 -5 -3 -8 14 -6 37 1 23 0 34 -3 24 -6 -22 -29 -17 -25 5 1
9 -4 18 -12 21 -11 4 -13 1 -10 -11 5 -15 4 -15 -6 1 -13 21 -61 46 -77 40
-17 -6 -26 16 -13 32 10 12 9 15 -8 15 -11 0 -22 -5 -24 -12 -3 -8 -11 -5 -25
9 -11 11 -32 23 -47 27 -14 3 -26 13 -26 21 0 8 -5 15 -11 15 -6 0 -25 10 -42
23 -18 12 -41 22 -52 22 -11 0 -20 5 -20 12 0 6 -3 15 -7 19 -5 4 -8 2 -8 -4
0 -18 -12 -14 -45 13 -16 14 -38 25 -50 24 -22 -2 -70 17 -96 38 -13 11 -41
19 -74 22 -5 1 -3 6 5 12 11 8 7 9 -17 4 -32 -6 -47 8 -20 18 6 3 0 6 -14 6
-14 1 -43 13 -64 27 -21 14 -44 23 -51 20 -9 -3 -11 1 -7 12 3 9 3 14 -2 10
-4 -4 -14 -3 -22 3 -7 6 -22 9 -33 6 -15 -4 -20 0 -20 14 0 21 -5 22 -36 9z
m247 -1417 c-12 -20 -14 -14 -5 12 4 9 9 14 11 11 3 -2 0 -13 -6 -23z m-26
-152 c-3 -6 -11 -11 -16 -11 -5 0 -4 6 3 14 14 16 24 13 13 -3z m-61 -36 c-4
-8 -11 -15 -16 -15 -6 0 -5 6 2 15 7 8 14 15 16 15 2 0 1 -7 -2 -15z m36 -10
c-7 -8 -18 -15 -24 -15 -6 0 -2 7 8 15 25 19 32 19 16 0z"/>
<path d="M7535 10010 c3 -5 8 -10 11 -10 2 0 4 5 4 10 0 6 -5 10 -11 10 -5 0
-7 -4 -4 -10z"/>
<path d="M7575 9599 c-4 -6 -5 -12 -2 -15 2 -3 7 2 10 11 7 17 1 20 -8 4z"/>
<path d="M5185 9440 c-347 -25 -674 -123 -928 -277 -31 -19 -55 -39 -52 -44 4
-5 0 -6 -8 -3 -18 7 -160 -131 -204 -198 -35 -51 -52 -95 -34 -84 6 4 11 16
11 27 0 10 4 19 8 19 5 0 19 18 31 41 13 23 26 37 30 31 4 -6 11 -4 19 4 10
11 10 14 0 14 -7 1 -2 10 11 21 17 14 26 16 31 8 6 -8 9 -8 14 0 4 6 2 11 -3
11 -6 0 -11 7 -11 15 0 8 5 15 10 15 6 0 10 -6 10 -12 0 -9 3 -10 8 -2 4 6 18
17 30 23 13 7 21 15 19 18 -3 2 -18 -3 -34 -13 l-28 -17 30 25 c25 22 31 24
44 11 12 -12 12 -16 1 -23 -9 -5 -4 -8 12 -7 l26 2 -20 27 c-18 26 -18 27 -1
22 10 -4 24 -14 31 -22 6 -9 12 -11 12 -5 0 7 17 9 46 5 35 -4 45 -2 40 7 -4
7 -17 11 -28 9 -12 -2 -23 3 -26 11 -2 8 0 11 5 8 6 -4 30 8 54 25 24 17 68
44 97 60 30 15 50 28 46 28 -19 0 98 49 167 70 41 12 84 26 97 31 13 5 33 9
45 9 13 0 27 4 33 8 9 9 161 35 179 32 30 -6 76 1 69 11 -5 8 75 10 292 5 315
-6 370 -9 381 -19 3 -4 26 -7 49 -7 24 0 63 -6 86 -14 56 -18 151 -41 161 -38
4 1 7 -2 7 -8 0 -5 9 -10 20 -10 11 0 28 -4 38 -9 21 -12 109 -50 140 -62 31
-12 133 -82 156 -107 12 -14 16 -28 11 -39 -7 -17 -8 -17 -14 1 -6 14 -25 23
-67 32 -72 15 -164 18 -164 4 0 -5 11 -10 24 -10 13 0 29 -7 36 -15 10 -12 16
-13 26 -4 11 9 15 8 20 -4 8 -23 61 -39 68 -21 3 7 2 13 -2 13 -19 -3 -32 2
-32 12 0 7 9 9 23 5 12 -4 27 -8 32 -9 18 -4 35 -18 35 -29 0 -5 -7 -7 -16 -4
-15 6 -15 4 -3 -10 7 -9 15 -12 17 -6 1 5 11 9 20 7 9 -1 11 0 5 2 -25 8 -13
25 12 19 18 -5 27 -2 31 9 9 22 34 18 34 -6 0 -15 5 -19 18 -15 9 3 23 2 31
-3 9 -6 19 -4 28 4 17 17 17 25 -1 25 -8 0 -24 9 -37 20 -20 16 -21 19 -6 20
9 0 17 -4 17 -10 0 -5 6 -10 13 -10 22 0 48 -34 37 -48 -7 -9 -7 -9 2 -2 17
14 34 12 20 -2 -15 -15 -16 -32 -2 -23 6 3 10 1 10 -4 0 -6 5 -11 11 -11 8 0
7 5 -1 15 -7 9 -11 18 -8 20 5 5 64 -57 121 -126 16 -19 9 -6 -14 29 -24 35
-70 87 -103 115 -34 29 -67 58 -75 65 -7 7 -23 10 -35 7 -14 -4 -17 -3 -8 3
16 11 -41 49 -153 105 -325 163 -754 238 -1180 207z m-178 -46 c-3 -3 -12 -4
-19 -1 -8 3 -5 6 6 6 11 1 17 -2 13 -5z m836 -11 c-7 -2 -19 -2 -25 0 -7 3 -2
5 12 5 14 0 19 -2 13 -5z m64 -9 c-3 -3 -12 -4 -19 -1 -8 3 -5 6 6 6 11 1 17
-2 13 -5z m188 -54 c8 -13 -5 -13 -25 0 -13 8 -13 10 2 10 9 0 20 -4 23 -10z
m166 -58 c-7 -2 -18 1 -23 6 -8 8 -4 9 13 5 13 -4 18 -8 10 -11z m-1746 -2
c-3 -5 -14 -10 -23 -9 -14 0 -13 2 3 9 27 11 27 11 20 0z m-78 -30 c-20 -11
-40 -20 -44 -20 -14 0 52 39 67 39 8 1 -2 -8 -23 -19z m1879 -27 c-6 -6 -36 9
-36 18 0 5 9 4 20 -3 10 -7 18 -14 16 -15z m21 21 c-3 -3 -12 -4 -19 -1 -8 3
-5 6 6 6 11 1 17 -2 13 -5z m38 -14 c3 -6 -1 -7 -9 -4 -18 7 -21 14 -7 14 6 0
13 -4 16 -10z m45 -31 c0 -6 -4 -7 -10 -4 -5 3 -10 11 -10 16 0 6 5 7 10 4 6
-3 10 -11 10 -16z m-2072 -1 c8 -10 4 -13 -14 -13 -26 0 -32 10 -11 18 6 3 13
6 13 6 1 1 6 -5 12 -11z m2022 2 c0 -5 -2 -10 -4 -10 -3 0 -8 5 -11 10 -3 6
-1 10 4 10 6 0 11 -4 11 -10z m126 -47 c-6 -6 -46 20 -46 30 0 4 11 0 25 -9
14 -9 24 -19 21 -21z m-2166 11 c0 -3 -14 -3 -32 -2 -18 1 -33 -3 -36 -10 -2
-6 -9 -12 -15 -12 -7 1 -2 9 10 19 14 12 32 17 48 14 14 -3 25 -7 25 -9z
m2128 -53 c3 -8 -1 -12 -9 -9 -7 2 -15 10 -17 17 -3 8 1 12 9 9 7 -2 15 -10
17 -17z m107 -31 c3 -5 -1 -10 -9 -10 -9 0 -16 5 -16 10 0 6 4 10 9 10 6 0 13
-4 16 -10z"/>
<path d="M4400 9113 c-19 -3 -39 -9 -45 -15 -7 -6 23 -7 91 -3 70 5 108 4 123
-4 15 -8 27 -9 39 -2 14 9 13 10 -10 11 -15 0 -30 5 -33 10 -6 10 -93 11 -165
3z"/>
<path d="M6105 9090 c-3 -5 -15 -10 -25 -10 -10 0 -22 -5 -25 -10 -7 -11 30
-8 41 3 4 4 15 7 25 7 10 0 21 5 24 10 3 6 -3 10 -14 10 -11 0 -23 -4 -26 -10z"/>
<path d="M4630 9080 c0 -5 7 -10 16 -10 8 0 12 5 9 10 -3 6 -10 10 -16 10 -5
0 -9 -4 -9 -10z"/>
<path d="M4548 9063 c7 -3 16 -2 19 1 4 3 -2 6 -13 5 -11 0 -14 -3 -6 -6z"/>
<path d="M4680 9055 c7 -8 17 -15 22 -15 5 0 3 7 -6 15 -8 8 -18 15 -22 15 -3
0 -1 -7 6 -15z"/>
<path d="M6198 9063 c7 -3 16 -2 19 1 4 3 -2 6 -13 5 -11 0 -14 -3 -6 -6z"/>
<path d="M6025 9040 c-3 -6 1 -7 9 -4 18 7 21 14 7 14 -6 0 -13 -4 -16 -10z"/>
<path d="M4710 9021 c0 -6 4 -13 10 -16 6 -3 7 1 4 9 -7 18 -14 21 -14 7z"/>
<path d="M5995 9010 c-3 -5 -1 -10 4 -10 6 0 11 5 11 10 0 6 -2 10 -4 10 -3 0
-8 -4 -11 -10z"/>
<path d="M6590 9015 c0 -5 5 -17 10 -25 5 -8 10 -10 10 -5 0 6 -5 17 -10 25
-5 8 -10 11 -10 5z"/>
<path d="M2078 8914 c-182 -280 -293 -495 -424 -817 -44 -106 -52 -137 -36
-137 4 0 17 -7 27 -15 11 -8 151 -106 310 -216 160 -111 342 -239 405 -284
147 -104 868 -610 929 -652 25 -17 52 -37 59 -43 9 -8 14 -7 19 7 3 10 23 55
44 100 l37 81 -10 89 c-6 48 -8 185 -6 304 3 144 1 219 -6 226 -6 5 -38 41
-71 79 -33 37 -82 93 -110 124 -27 31 -79 89 -115 130 -36 41 -74 84 -85 95
-11 12 -42 48 -70 81 -27 32 -133 154 -235 269 -102 116 -212 241 -245 279
-33 38 -71 81 -84 95 -13 14 -46 53 -75 85 -52 61 -97 111 -158 180 l-35 40
-65 -100z"/>
<path d="M5238 9003 c7 -3 16 -2 19 1 4 3 -2 6 -13 5 -11 0 -14 -3 -6 -6z"/>
<path d="M8543 8943 c-65 -74 -140 -160 -187 -213 -17 -19 -78 -89 -136 -155
-58 -66 -107 -122 -110 -125 -11 -11 -144 -163 -178 -203 -48 -57 -394 -450
-402 -457 -3 -3 -54 -59 -112 -126 l-107 -121 6 -194 c3 -107 1 -243 -5 -303
l-9 -110 38 -85 c77 -175 130 -395 145 -598 4 -51 11 -93 15 -93 5 0 84 30
176 66 93 37 209 82 258 101 50 19 110 43 135 52 25 10 124 49 220 86 96 37
220 86 275 107 55 22 127 50 160 62 33 13 170 66 305 118 135 52 280 108 322
124 52 19 78 34 78 45 0 18 -32 175 -61 299 -154 659 -387 1224 -696 1693 -36
53 -66 97 -68 97 -2 0 -30 -30 -62 -67z"/>
<path d="M5030 8950 c0 -6 7 -10 15 -10 8 0 15 2 15 4 0 2 -7 6 -15 10 -8 3
-15 1 -15 -4z"/>
<path d="M5708 8953 c7 -3 16 -2 19 1 4 3 -2 6 -13 5 -11 0 -14 -3 -6 -6z"/>
<path d="M4858 8943 c7 -3 16 -2 19 1 4 3 -2 6 -13 5 -11 0 -14 -3 -6 -6z"/>
<path d="M4940 8940 c0 -5 5 -10 10 -10 6 0 10 5 10 10 0 6 -4 10 -10 10 -5 0
-10 -4 -10 -10z"/>
<path d="M5229 8946 c-2 -2 -29 -7 -59 -10 -96 -10 -152 -23 -159 -35 -5 -7
-12 -11 -17 -9 -5 1 -31 -8 -58 -20 -28 -13 -58 -20 -70 -17 -14 4 -17 3 -8
-3 9 -6 1 -16 -31 -36 -24 -15 -49 -37 -56 -49 -12 -20 -11 -20 15 3 16 14 31
28 34 31 10 12 154 79 170 79 9 0 20 4 26 9 20 20 178 44 334 51 l165 7 -141
1 c-77 1 -143 0 -145 -2z"/>
<path d="M5570 8929 c73 -11 152 -32 228 -63 34 -13 62 -20 62 -15 0 5 -5 9
-12 9 -6 0 -30 9 -52 19 -52 25 -203 61 -247 60 -25 -1 -19 -4 21 -10z"/>
<path d="M4025 8920 c-3 -5 -1 -10 4 -10 6 0 11 5 11 10 0 6 -2 10 -4 10 -3 0
-8 -4 -11 -10z"/>
<path d="M5885 8828 c11 -7 26 -18 33 -25 7 -7 17 -13 21 -13 4 0 22 -14 39
-31 18 -17 32 -27 32 -21 0 6 -14 20 -30 32 -17 12 -27 26 -24 32 4 7 2 8 -5
4 -6 -4 -23 2 -37 13 -15 12 -32 21 -38 21 -6 0 -2 -6 9 -12z"/>
<path d="M6021 8715 c0 -5 6 -19 14 -29 8 -11 15 -15 15 -10 0 6 -7 19 -15 30
-8 10 -14 15 -14 9z"/>
<path d="M6129 8104 l-56 -25 -7 -61 c-3 -34 -6 -85 -6 -114 l0 -53 88 -26
c133 -40 246 -82 344 -127 49 -23 90 -39 92 -37 2 2 40 75 85 161 l82 157 -34
25 c-18 14 -60 38 -92 53 -57 27 -67 28 -205 27 -141 0 -148 -1 -242 -36 -54
-20 -98 -32 -98 -28 0 5 14 14 30 22 17 7 30 17 30 22 0 4 -12 1 -26 -9 -29
-19 -38 -16 -28 9 4 11 13 15 22 11 9 -3 13 -3 9 1 -4 4 15 17 41 30 64 31 41
29 -29 -2z"/>
<path d="M4600 8106 c0 -2 16 -14 36 -26 41 -26 38 -37 -5 -22 -17 6 -31 9
-31 7 0 -3 77 -45 84 -45 1 0 1 13 -2 29 -3 20 -13 33 -38 45 -36 17 -44 19
-44 12z"/>
<path d="M4240 8091 c-85 -16 -125 -31 -182 -67 -32 -19 -58 -39 -58 -42 0 -7
135 -272 156 -307 11 -17 17 -16 115 28 125 55 227 93 334 122 l80 22 3 76 3
75 -58 27 c-118 54 -294 84 -393 66z"/>
<path d="M1306 6853 c-4 -26 -9 -57 -11 -68 -6 -33 -44 -296 -50 -350 -30
-264 -41 -416 -54 -780 -7 -173 -7 -346 -1 -480 5 -115 10 -232 10 -259 l0
-49 63 8 c86 9 101 11 272 29 83 9 188 20 235 26 47 6 150 17 230 26 315 33
419 44 505 54 50 6 153 18 230 26 77 8 201 21 275 29 74 8 189 20 255 27 66 6
121 12 122 13 1 0 -6 37 -17 81 -66 278 -109 596 -111 823 l-1 132 -31 14
c-34 16 -214 85 -552 215 -60 23 -171 66 -245 95 -74 29 -200 78 -280 109
-187 73 -311 121 -485 189 -148 58 -323 126 -341 134 -7 2 -14 -15 -18 -44z"/>
<path d="M9500 5860 c-28 -6 -30 -8 -10 -9 14 -1 21 -5 15 -9 -14 -10 -20
-182 -6 -182 6 0 11 -11 11 -25 0 -14 -6 -25 -12 -25 -8 0 -9 -3 -3 -8 16 -11
20 -116 16 -397 -1 -82 1 -159 4 -170 5 -15 4 -17 -3 -6 -7 10 -10 0 -9 -35 2
-70 -9 -102 -36 -106 -12 -2 -69 3 -127 10 -228 28 -268 32 -355 43 -128 15
-233 26 -450 49 -104 11 -271 29 -370 40 -99 11 -200 23 -225 25 -25 3 -99 12
-165 20 -66 8 -155 17 -198 21 -56 5 -75 10 -68 18 5 6 11 29 13 51 3 22 12
67 21 100 8 33 25 114 36 180 12 66 24 130 27 143 5 23 4 23 -63 17 -72 -7
-93 -20 -93 -61 0 -42 -68 -359 -110 -515 -63 -231 -103 -361 -187 -608 -48
-143 -72 -229 -67 -237 5 -7 459 -312 1009 -679 550 -367 1007 -674 1016 -681
8 -8 18 -14 21 -14 3 0 22 44 41 98 135 371 248 844 307 1282 7 47 14 99 16
115 43 317 70 924 59 1313 -4 138 -10 251 -14 251 -3 -1 -22 -5 -41 -9z m10
-135 c-6 -49 -8 -53 -9 -20 -1 37 8 89 14 83 2 -2 0 -30 -5 -63z m7 -547 c-3
-8 -6 -5 -6 6 -1 11 2 17 5 13 3 -3 4 -12 1 -19z"/>
<path d="M9160 5810 c0 -5 5 -10 10 -10 6 0 10 5 10 10 0 6 -4 10 -10 10 -5 0
-10 -4 -10 -10z"/>
<path d="M9208 5813 c6 -2 18 -2 25 0 6 3 1 5 -13 5 -14 0 -19 -2 -12 -5z"/>
<path d="M9118 5803 c7 -3 16 -2 19 1 4 3 -2 6 -13 5 -11 0 -14 -3 -6 -6z"/>
<path d="M8955 5789 c-93 -12 -100 -15 -38 -20 28 -2 49 -1 46 4 -2 4 17 7 44
8 26 1 59 5 73 9 21 7 19 8 -15 8 -22 0 -71 -5 -110 -9z"/>
<path d="M8696 5752 c-3 -5 8 -6 25 -4 16 2 29 6 29 8 0 8 -49 4 -54 -4z"/>
<path d="M8645 5740 c-3 -5 -1 -10 4 -10 6 0 11 5 11 10 0 6 -2 10 -4 10 -3 0
-8 -4 -11 -10z"/>
<path d="M8598 5733 c7 -3 16 -2 19 1 4 3 -2 6 -13 5 -11 0 -14 -3 -6 -6z"/>
<path d="M8500 5719 c0 -5 5 -7 10 -4 6 3 10 8 10 11 0 2 -4 4 -10 4 -5 0 -10
-5 -10 -11z"/>
<path d="M8468 5713 c7 -3 16 -2 19 1 4 3 -2 6 -13 5 -11 0 -14 -3 -6 -6z"/>
<path d="M8368 5703 c7 -3 16 -2 19 1 4 3 -2 6 -13 5 -11 0 -14 -3 -6 -6z"/>
<path d="M8270 5696 c0 -2 7 -6 15 -10 8 -3 15 -1 15 4 0 6 -7 10 -15 10 -8 0
-15 -2 -15 -4z"/>
<path d="M8318 5693 c7 -3 16 -2 19 1 4 3 -2 6 -13 5 -11 0 -14 -3 -6 -6z"/>
<path d="M8188 5683 c7 -3 16 -2 19 1 4 3 -2 6 -13 5 -11 0 -14 -3 -6 -6z"/>
<path d="M8090 5670 c0 -5 5 -10 11 -10 5 0 7 5 4 10 -3 6 -8 10 -11 10 -2 0
-4 -4 -4 -10z"/>
<path d="M8130 5670 c0 -5 7 -7 15 -4 8 4 15 8 15 10 0 2 -7 4 -15 4 -8 0 -15
-4 -15 -10z"/>
<path d="M8040 5660 c0 -5 5 -10 10 -10 6 0 10 5 10 10 0 6 -4 10 -10 10 -5 0
-10 -4 -10 -10z"/>
<path d="M7937 5648 c-16 -10 42 -9 68 2 15 6 11 7 -18 7 -20 -1 -43 -5 -50
-9z"/>
<path d="M7898 5643 c7 -3 16 -2 19 1 4 3 -2 6 -13 5 -11 0 -14 -3 -6 -6z"/>
<path d="M7775 5630 c-28 -8 -27 -8 10 -7 23 0 47 -3 55 -8 8 -5 11 -4 6 3 -3
6 3 12 16 15 13 2 5 4 -17 4 -22 1 -53 -3 -70 -7z"/>
<path d="M7710 5620 c0 -5 7 -10 15 -10 8 0 15 5 15 10 0 6 -7 10 -15 10 -8 0
-15 -4 -15 -10z"/>
<path d="M7650 5616 c0 -2 9 -6 20 -9 11 -3 18 -1 14 4 -5 9 -34 13 -34 5z"/>
<path d="M3470 4625 c-14 -8 -32 -14 -41 -15 -18 0 -48 -30 -31 -30 5 0 13
-21 17 -46 4 -26 11 -54 16 -63 5 -9 32 -79 59 -156 28 -77 55 -150 61 -162 6
-11 10 -26 8 -31 -2 -6 -299 -208 -659 -448 -360 -240 -666 -445 -680 -456
-22 -17 -90 -62 -304 -203 -34 -22 -90 -60 -126 -85 -36 -25 -81 -55 -101 -66
l-37 -21 -16 33 c-9 19 -19 53 -22 77 -4 23 -10 47 -14 52 -4 6 -10 27 -14 48
-4 20 -11 37 -15 37 -11 0 -42 100 -35 111 3 6 2 15 -3 22 -6 7 -15 38 -22 69
-7 32 -16 60 -21 63 -5 3 -7 20 -4 38 4 22 3 28 -4 18 -8 -11 -11 -9 -18 10
-4 13 -7 30 -5 37 3 18 -37 197 -55 245 -8 21 -12 50 -9 65 4 23 4 24 -4 7 -8
-17 -10 -14 -10 17 -1 20 -6 38 -13 40 -6 2 3 10 20 17 48 20 38 30 -13 13
-49 -16 -53 -26 -35 -91 5 -20 26 -110 46 -201 20 -91 42 -183 49 -205 7 -22
22 -76 34 -120 34 -124 160 -491 198 -580 19 -44 44 -102 55 -130 25 -63 157
-323 221 -435 104 -181 296 -456 402 -574 6 -6 49 -56 97 -111 85 -99 207
-217 343 -332 87 -74 165 -133 176 -133 4 0 21 26 37 58 16 31 40 75 52 97 13
22 36 65 53 95 16 30 35 64 42 75 7 11 36 65 65 120 29 55 57 105 61 110 4 6
21 35 37 65 71 134 254 466 303 552 22 36 39 69 39 71 0 3 28 56 63 119 62
111 88 157 192 348 51 94 186 336 221 396 l18 32 -58 122 c-142 300 -409 958
-517 1272 -30 87 -58 158 -64 158 -5 -1 -21 -7 -35 -15z m139 -431 c-35 -20
-45 -17 -18 5 13 11 28 17 33 14 5 -3 -2 -12 -15 -19z m10 -38 c-2 -2 -15 -9
-29 -15 -24 -11 -24 -11 -6 3 16 13 49 24 35 12z"/>
<path d="M3358 4573 c7 -3 16 -2 19 1 4 3 -2 6 -13 5 -11 0 -14 -3 -6 -6z"/>
<path d="M2490 4260 c-8 -5 -10 -10 -5 -10 6 0 17 5 25 10 8 5 11 10 5 10 -5
0 -17 -5 -25 -10z"/>
<path d="M1870 4035 c-14 -8 -20 -14 -14 -15 5 0 19 7 30 15 24 18 16 19 -16
0z"/>
<path d="M6487 2847 c-218 -446 -262 -591 -261 -842 2 -262 74 -486 299 -935
51 -102 116 -228 145 -280 105 -189 148 -276 155 -308 5 -26 11 -32 23 -27 10
4 28 11 42 15 63 19 268 109 400 175 172 86 272 144 397 231 l92 64 -31 46
c-16 25 -33 43 -36 40 -2 -3 0 -12 7 -19 16 -20 4 -46 -19 -40 -12 3 -24 -4
-35 -21 -10 -14 -24 -26 -33 -26 -16 0 -79 -43 -99 -68 -10 -12 -16 -12 -26
-3 -12 9 -16 7 -20 -8 -2 -11 -17 -22 -35 -25 -16 -4 -45 -18 -63 -32 -19 -14
-51 -32 -71 -41 -21 -8 -38 -20 -38 -25 0 -6 -7 -8 -15 -4 -9 3 -15 0 -15 -9
0 -8 -7 -15 -16 -15 -19 0 -107 -39 -115 -52 -3 -5 -10 -8 -15 -7 -5 2 -26 -5
-48 -14 -21 -9 -42 -17 -47 -17 -5 0 -9 -5 -9 -11 0 -8 -4 -8 -14 0 -11 9 -15
9 -18 -1 -4 -12 -40 36 -76 102 -43 78 -324 645 -347 700 -15 36 -33 79 -40
95 -27 60 -77 212 -97 295 -51 215 -26 529 58 717 8 17 14 34 14 38 0 4 16 42
36 84 19 42 56 121 82 176 26 55 51 103 56 106 4 4 5 13 0 20 -6 10 -3 10 11
-1 10 -8 24 -29 31 -46 16 -39 94 -172 94 -161 0 5 -22 50 -49 100 -26 51 -68
129 -91 175 -24 45 -46 82 -49 81 -3 0 -55 -100 -114 -222z m953 -2057 c-12
-8 -12 -10 -1 -10 8 0 12 -2 10 -5 -3 -2 -16 -1 -29 2 -22 6 -23 7 -4 14 27
11 42 10 24 -1z m-600 -46 c0 -8 -4 -12 -10 -9 -5 3 -10 10 -10 16 0 5 5 9 10
9 6 0 10 -7 10 -16z m-70 -4 c0 -5 -4 -10 -10 -10 -5 0 -10 5 -10 10 0 6 5 10
10 10 6 0 10 -4 10 -10z m-11 -46 c16 -37 9 -39 -11 -3 -9 16 -14 29 -9 29 4
0 13 -12 20 -26z m94 -34 c12 -11 28 -18 37 -15 12 5 12 4 3 -6 -10 -10 -18
-10 -38 -1 -21 10 -28 8 -42 -7 -15 -16 -20 -17 -31 -5 -11 12 -10 14 3 14 8
0 15 7 15 16 0 8 5 12 10 9 6 -3 10 -1 10 4 0 16 8 13 33 -9z m-16 -53 c1 -29
1 -30 -8 -9 -5 13 -7 28 -3 33 8 14 9 12 11 -24z"/>
<path d="M6790 2694 c0 -5 9 -20 20 -34 18 -24 19 -24 14 -3 -6 22 -34 53 -34
37z"/>
<path d="M6840 2616 c0 -13 53 -107 57 -102 3 2 -9 28 -26 58 -17 29 -31 49
-31 44z"/>
<path d="M6900 2490 c0 -5 5 -10 11 -10 5 0 7 5 4 10 -3 6 -8 10 -11 10 -2 0
-4 -4 -4 -10z"/>
<path d="M6945 2420 c9 -16 18 -30 21 -30 2 0 -2 14 -11 30 -9 17 -18 30 -21
30 -2 0 2 -13 11 -30z"/>
<path d="M6976 2357 c3 -10 9 -15 12 -12 3 3 0 11 -7 18 -10 9 -11 8 -5 -6z"/>
<path d="M7017 2280 c3 -11 9 -20 15 -20 5 0 4 9 -2 20 -6 11 -12 20 -14 20
-2 0 -2 -9 1 -20z"/>
<path d="M7080 2171 c0 -5 5 -13 10 -16 6 -3 10 -2 10 4 0 5 -4 13 -10 16 -5
3 -10 2 -10 -4z"/>
<path d="M7100 2134 c0 -6 7 -19 15 -30 8 -10 14 -14 14 -9 0 6 -6 19 -14 29
-8 11 -15 15 -15 10z"/>
<path d="M7210 1930 c0 -5 5 -10 11 -10 5 0 7 5 4 10 -3 6 -8 10 -11 10 -2 0
-4 -4 -4 -10z"/>
<path d="M7250 1864 c0 -5 7 -18 15 -28 8 -11 15 -16 15 -10 0 5 -7 18 -15 28
-8 11 -15 16 -15 10z"/>
<path d="M7280 1807 c0 -5 8 -21 19 -35 10 -15 47 -81 81 -147 79 -151 84
-159 91 -165 4 -3 19 -29 33 -58 15 -30 29 -52 32 -49 2 2 -12 33 -32 68 -20
35 -56 100 -79 144 -90 170 -106 199 -125 224 -11 14 -20 22 -20 18z"/>
<path d="M7546 1327 c3 -10 9 -15 12 -12 3 3 0 11 -7 18 -10 9 -11 8 -5 -6z"/>
<path d="M7576 1277 c3 -10 9 -15 12 -12 3 3 0 11 -7 18 -10 9 -11 8 -5 -6z"/>
<path d="M8400 885 c0 -12 13 -15 60 -15 l60 0 0 -175 c0 -168 1 -175 20 -175
19 0 20 7 20 175 l0 175 58 0 c46 0 59 3 59 15 0 13 -22 15 -139 15 -116 0
-138 -2 -138 -15z"/>
<path d="M8750 711 c0 -187 0 -191 21 -191 20 0 20 4 17 150 -2 83 -1 150 2
150 3 0 27 -36 53 -80 64 -107 77 -107 137 0 25 44 48 80 53 80 4 0 7 -67 7
-150 0 -127 2 -150 15 -150 13 0 15 28 15 190 0 235 -5 240 -95 91 -36 -60
-64 -96 -69 -91 -5 5 -33 49 -61 97 -36 62 -58 89 -73 91 -22 3 -22 3 -22
-187z"/>
</g>
</svg>
